<svg width="256" height="19" viewBox="0 0 256 19" fill="none" xmlns="http://www.w3.org/2000/svg">
<path d="M7.17969 5.86719C7.16992 8.57227 8.61523 11.6973 11.5352 13.0547L10.1484 15.0078C8.16602 14.0996 6.75977 12.2832 5.95898 10.1543C5.16797 12.498 3.70312 14.4902 1.65234 15.457L0.207031 13.4844C3.16602 12.1074 4.66016 8.80664 4.67969 5.86719V4.77344H0.910156V2.74219H10.7539V4.77344H7.17969V5.86719ZM12.1406 18.7969V1.02344H14.6406V7.80078H17.2578V9.89062H14.6406V18.7969H12.1406ZM34.1523 10.9062V12.918H30.3438V18.7969H27.8047V12.918H24.1719V18.7969H21.6133V12.918H17.8828V10.9062H34.1523ZM19.5234 5.63281C19.5137 3.18164 22.1504 1.61914 25.9688 1.60938C29.7871 1.61914 32.4531 3.18164 32.4531 5.63281C32.4531 8.02539 29.7871 9.54883 25.9688 9.53906C22.1504 9.54883 19.5137 8.02539 19.5234 5.63281ZM22.082 5.63281C22.0723 6.88281 23.5859 7.57617 25.9688 7.58594C28.3711 7.57617 29.875 6.88281 29.875 5.63281C29.875 4.32422 28.3711 3.61133 25.9688 3.60156C23.5859 3.61133 22.0723 4.32422 22.082 5.63281ZM51.4375 9.85156V11.8242H35.168V9.85156H42.0625V8.77734H37.1992V4.10938H46.9648V3.19141H37.1602V1.27734H49.4648V5.88672H39.6797V6.88281H49.7969V8.77734H44.543V9.85156H51.4375ZM37.2188 18.6016V12.4688H39.6992V13.6406H47.0625V12.4688H49.5234V18.6016H37.2188ZM39.6992 16.6875H47.0625V15.4961H39.6992V16.6875ZM67.8828 1.02344V18.7969H65.5391V1.02344H67.8828ZM52.2578 13.3477C55.8516 11.2188 57.4336 8.63086 57.7754 5.14453H53.2344V3.13281H60.2461C60.2461 4.83203 60.0605 6.41406 59.6309 7.87891H61.7695V1.41406H64.0938V18.0156H61.7695V9.85156H58.8594C57.8438 11.8828 56.1934 13.6406 53.6641 15.1055L52.2578 13.3477ZM85.0508 2.80078V4.73438H81.5352C81.5938 6.13086 82.8535 7.41016 85.4805 7.89844L84.5039 9.8125C82.4922 9.42188 81.1055 8.5332 80.3145 7.3418C79.5332 8.65039 78.1172 9.64648 76.0273 10.0664L75.0117 8.13281C77.6973 7.625 78.9473 6.22852 79.0156 4.73438H75.4805V2.80078H79.0352V1.0625H81.5352V2.80078H85.0508ZM74.4062 10.8281C77.6875 10.8281 82.0625 10.7988 85.8125 10.3203L85.9688 12.1172C84.5039 12.3711 83 12.5371 81.5156 12.6445V18.25H79.0352V12.7812C77.4922 12.8398 76.0176 12.8398 74.7188 12.8398L74.4062 10.8281ZM86.8867 18.7969V1.04297H89.3477V18.7969H86.8867ZM108.059 3.62109V5.63281H105.754V7.44922H108.059V9.48047H105.754V12.3125H103.254V1.02344H105.754V3.62109H108.059ZM91.6523 4.65625V2.72266H95.6953V0.925781H98.1758V2.72266H102.199V4.65625H91.6523ZM92.5117 8.46484C92.5117 6.57031 94.3086 5.27148 96.9258 5.26172C99.5137 5.27148 101.301 6.57031 101.301 8.46484C101.301 10.3789 99.5137 11.6484 96.9258 11.6484C94.3184 11.6484 92.5117 10.3789 92.5117 8.46484ZM93.9375 15.6523C93.918 13.6504 96.2129 12.4785 99.9531 12.4688C103.605 12.4785 105.939 13.6504 105.949 15.6523C105.939 17.6055 103.605 18.8066 99.9531 18.7969C96.2129 18.8066 93.918 17.6055 93.9375 15.6523ZM94.9531 8.46484C94.9434 9.34375 95.7344 9.80273 96.9258 9.79297C98.127 9.80273 98.9375 9.34375 98.9375 8.46484C98.9375 7.57617 98.127 7.08789 96.9258 7.07812C95.7344 7.08789 94.9434 7.57617 94.9531 8.46484ZM96.3984 15.6523C96.3887 16.4824 97.6191 16.9414 99.9531 16.9414C102.219 16.9414 103.449 16.4824 103.449 15.6523C103.449 14.7637 102.219 14.373 99.9531 14.3633C97.6191 14.373 96.3887 14.7637 96.3984 15.6523ZM117.043 1.27734C121.135 1.27734 123.498 2.35156 123.508 4.30469C123.498 6.28711 121.135 7.35156 117.043 7.35156C112.941 7.35156 110.559 6.28711 110.559 4.30469C110.559 2.35156 112.941 1.27734 117.043 1.27734ZM108.938 10.1641V8.19141H125.148V10.1641H108.938ZM110.812 13.0156V11.1992H123.176V15.7305H113.273V16.8047H123.645V18.6797H110.832V13.9922H120.715V13.0156H110.812ZM113.176 4.30469C113.166 5.17383 114.436 5.51562 117.043 5.51562C119.67 5.51562 120.93 5.17383 120.93 4.30469C120.93 3.51367 119.67 3.09375 117.043 3.09375C114.436 3.09375 113.166 3.51367 113.176 4.30469ZM147.043 9.5V11.4531H140.148V12.9961H145.07V18.7969H142.59V14.9883H132.629V12.9961H137.688V11.4531H130.832V9.5H147.043ZM132.902 8.32812V1.45312H135.363V3.07422H142.492V1.45312H144.973V8.32812H132.902ZM135.363 6.375H142.492V4.91016H135.363V6.375ZM157.219 2.70312V14.4609H148.684V2.70312H157.219ZM151.145 12.4883H154.738V4.65625H151.145V12.4883ZM159.641 18.7969V1.02344H162.141V7.72266H164.758V9.79297H162.141V18.7969H159.641ZM179.953 2.58594V4.65625C179.943 7.24414 179.943 9.70508 179.133 13.5625L176.652 13.3281C177.004 11.8535 177.209 10.5449 177.336 9.34375L167.023 9.85156L166.711 7.85938L177.463 7.46875C177.502 6.49219 177.512 5.57422 177.512 4.65625V4.57812H167.258V2.58594H179.953ZM165.402 16.668V14.6367H181.613V16.668H165.402ZM191.262 3.73828V5.71094H182.668V3.73828H185.754V1.51172H188.215V3.73828H191.262ZM183.078 10.7305C183.078 8.25977 184.738 6.52148 187.004 6.51172C189.279 6.52148 190.9 8.25977 190.91 10.7305C190.9 13.2109 189.279 14.9688 187.004 14.9688C184.738 14.9688 183.078 13.2109 183.078 10.7305ZM185.266 10.7305C185.266 12.0879 185.969 12.8594 187.004 12.8594C188 12.8594 188.713 12.0879 188.723 10.7305C188.713 9.39258 188 8.58203 187.004 8.58203C185.969 8.58203 185.266 9.39258 185.266 10.7305ZM191.926 18.0352V1.375H194.25V8.25H195.695V1.02344H198.059V18.7969H195.695V10.2422H194.25V18.0352H191.926ZM220.852 14.6953V16.7266H204.582V14.6953H211.438V11.4141H206.301V2.15625H208.801V4.91016H216.555V2.15625H219.035V11.4141H213.918V14.6953H220.852ZM208.801 9.42188H216.555V6.90234H208.801V9.42188ZM227.57 5.49609C227.561 8.37695 228.361 11.3457 230.793 12.8984L229.445 14.832C227.902 13.9043 226.936 12.3613 226.369 10.5449C225.734 12.5566 224.67 14.2461 223.059 15.2227L221.535 13.3867C224.172 11.7559 225.148 8.62109 225.148 5.61328V2.54688H227.57V5.49609ZM228.918 9.05078V7.01953H231.223V1.27734H233.547V17.9766H231.223V9.05078H228.918ZM234.895 18.7969V1.02344H237.277V18.7969H234.895ZM255.422 14.6758V16.7266H239.152V14.6758H242.785V10.3203C241.408 9.49023 240.578 8.23047 240.578 6.66797C240.578 3.78711 243.391 1.89258 247.258 1.88281C251.105 1.89258 253.947 3.78711 253.957 6.66797C253.947 8.20117 253.146 9.44141 251.809 10.2715V14.6758H255.422ZM243.039 6.66797C243.039 8.40625 244.709 9.48047 247.258 9.48047C249.768 9.48047 251.486 8.40625 251.496 6.66797C251.486 4.88086 249.768 3.8457 247.258 3.85547C244.709 3.8457 243.039 4.88086 243.039 6.66797ZM245.246 14.6758H249.289V11.2188C248.654 11.3457 247.971 11.4141 247.258 11.4141C246.545 11.4141 245.871 11.3457 245.246 11.2285V14.6758Z" fill="#E2E5EC"/>
</svg>
