<svg width="25" height="24" viewBox="0 0 25 24" fill="none" xmlns="http://www.w3.org/2000/svg">
<path d="M12.2053 6.38461C13.0894 6.38461 14.1975 5.80483 14.8574 5.03179C15.4551 4.33121 15.8909 3.35283 15.8909 2.37444C15.8909 2.24158 15.8784 2.10871 15.8535 2C14.8699 2.03624 13.687 2.64018 12.9773 3.44946C12.417 4.06548 11.9065 5.03179 11.9065 6.02225C11.9065 6.1672 11.9314 6.31214 11.9438 6.36046C12.0061 6.37254 12.1057 6.38461 12.2053 6.38461ZM9.09253 21C10.3003 21 10.8357 20.2149 12.3423 20.2149C13.8738 20.2149 14.21 20.9758 15.5547 20.9758C16.8745 20.9758 17.7585 19.7921 18.5928 18.6325C19.5266 17.3039 19.9126 15.9994 19.9375 15.939C19.8503 15.9148 17.3228 14.9123 17.3228 12.0979C17.3228 9.65798 19.3149 8.5588 19.427 8.47425C18.1072 6.63827 16.1025 6.58996 15.5547 6.58996C14.073 6.58996 12.8652 7.45963 12.1057 7.45963C11.2839 7.45963 10.2007 6.63827 8.91821 6.63827C6.47778 6.63827 4 8.59504 4 12.2912C4 14.5861 4.92139 17.014 6.05444 18.5842C7.02563 19.9129 7.87231 21 9.09253 21Z" fill="black"/>
</svg>
