<svg width="173" height="49" viewBox="0 0 173 49" fill="none" xmlns="http://www.w3.org/2000/svg">
<path d="M15.3574 1.02344V18.7969H12.9551V9.91016H11.2949V17.9375H8.95117V1.31641H11.2949V7.89844H12.9551V1.02344H15.3574ZM0.748047 14.4609V2.99609H3.24805V12.2832C4.67383 12.2441 6.24609 12.1172 7.95508 11.7852L8.20898 13.9336C5.82617 14.3438 3.79492 14.4707 1.95898 14.4609H0.748047ZM28.4629 4.89062C28.4727 6.73633 29.7422 8.61133 32.623 9.38281L31.4902 11.2969C29.4785 10.7598 28.082 9.63672 27.2715 8.20117C26.5 9.83203 25.0938 11.1309 23.0137 11.7656L21.8027 9.79297C24.6934 8.95312 25.9824 6.93164 25.9824 4.89062V4.83203H22.4082V2.85938H25.9824V0.964844H28.502V2.85938H32.0566V4.83203H28.4629V4.89062ZM23.9707 16.7656C27.6523 16.2285 29.6348 14.1484 29.6543 12.3711V12.0781H32.2129V12.3711C32.1934 14.2656 34.0977 16.2676 37.916 16.7656L36.9395 18.7188C34.0391 18.3086 31.9688 17.0098 30.9043 15.291C29.8105 16.9902 27.7305 18.3086 24.8496 18.7188L23.9707 16.7656ZM31.5488 7.78125V5.75H34.4004V1.02344H36.8809V13.1523H34.4004V7.78125H31.5488ZM58.7949 1.04297V14.1484H56.3145V7.74219H53.0332V11.3359H44.5762V2.19531H47.0762V4.92969H50.5723V2.19531H53.0332V5.75H56.3145V1.04297H58.7949ZM46.959 18.4844V12.8398H49.4785V16.4922H59.166V18.4844H46.959ZM47.0762 9.38281H50.5723V6.82422H47.0762V9.38281ZM76.8418 1.02344V18.7969H74.498V9.94922H73.3066V17.9766H71.002V13.3867L69.8301 14.8125C68.8828 14.0312 68.2871 12.918 67.916 11.6387C67.5449 12.9766 66.9395 14.1875 65.9238 15.0273C64.8984 14.1973 64.2734 12.9863 63.9023 11.6484C63.541 12.918 62.9648 14.041 62.0371 14.8125L60.6309 13.1523C62.6621 11.4629 62.8184 8.48438 62.8184 5.98438V4.98828H61.2559V2.99609H65.709V4.98828H64.9473V5.98438C64.9473 7.71289 64.9961 9.94922 65.9141 11.7461C66.832 9.95898 66.8516 7.78125 66.8613 5.98438V4.98828H66.1387V2.99609H70.3184V4.98828H69.0098V5.98438C68.9902 8.42578 69.166 11.2676 71.002 12.9766V1.27734H73.3066V7.91797H74.498V1.02344H76.8418ZM91.002 12.0977C94.8887 12.0977 97.3301 13.3281 97.3496 15.457C97.3301 17.5566 94.8887 18.8066 91.002 18.7969C87.1445 18.8066 84.6641 17.5566 84.6738 15.457C84.6641 13.3281 87.1445 12.0977 91.002 12.0977ZM83.0332 10.9648V8.95312H89.0879V5.84766H91.5488V8.95312H99.166V10.9648H83.0332ZM84.8496 3.77734V1.82422H97.252V3.26953C97.2617 4.68555 97.2617 6.20898 96.7441 8.03516L94.3027 7.80078C94.7031 6.18945 94.752 4.98828 94.7715 3.77734H84.8496ZM87.1543 15.457C87.1445 16.4141 88.5508 16.9023 91.002 16.9023C93.4531 16.9023 94.8691 16.4141 94.8691 15.457C94.8691 14.4707 93.4531 13.9434 91.002 13.9531C88.5508 13.9434 87.1445 14.4707 87.1543 15.457ZM114.381 1.02344V6.00391H116.783V8.05469H114.381V13.7578H111.861V1.02344H114.381ZM100.162 10.0469C104.146 8.94336 106.402 6.88281 106.793 4.38281H100.943V2.35156H109.537C109.527 7.15625 106.529 10.5156 101.197 12.0195L100.162 10.0469ZM102.818 18.4844V12.4492H105.338V16.4922H114.986V18.4844H102.818ZM137.115 1.02344V18.7969H134.596V1.02344H137.115ZM122.232 13.7578C126.822 11.5898 128.844 8.77734 129.244 4.83203H123.189V2.87891H131.783C131.773 8.26953 129.889 12.752 123.541 15.75L122.232 13.7578ZM155.709 10.5547V12.5469H139.439V10.5547H146.334V9.26562H141.471V4.38281H151.236V3.28906H141.432V1.35547H153.736V6.17969H143.951V7.35156H154.068V9.26562H148.814V10.5547H155.709ZM141.256 15.5156V13.5625H153.834V18.7188H151.314V15.5156H141.256ZM164.85 1.27734C168.941 1.27734 171.305 2.35156 171.314 4.30469C171.305 6.28711 168.941 7.35156 164.85 7.35156C160.748 7.35156 158.365 6.28711 158.365 4.30469C158.365 2.35156 160.748 1.27734 164.85 1.27734ZM156.744 10.1641V8.19141H172.955V10.1641H156.744ZM158.619 13.0156V11.1992H170.982V15.7305H161.08V16.8047H171.451V18.6797H158.639V13.9922H168.521V13.0156H158.619ZM160.982 4.30469C160.973 5.17383 162.242 5.51562 164.85 5.51562C167.477 5.51562 168.736 5.17383 168.736 4.30469C168.736 3.51367 167.477 3.09375 164.85 3.09375C162.242 3.09375 160.973 3.51367 160.982 4.30469ZM42.9648 32.0586V34.0508H39.4297C39.4395 36.1309 40.6895 38.2695 43.5703 39.1875L42.3008 41.1211C40.3281 40.4766 38.9707 39.207 38.1992 37.625C37.4082 39.3535 35.9824 40.7402 33.9219 41.4141L32.5938 39.5C35.5332 38.5527 36.8809 36.2676 36.9102 34.0508H33.2773V32.0586H42.9648ZM34.9961 44.4805V42.5078H46.9688V48.7969H44.4688V44.4805H34.9961ZM44.4688 41.7461V31.0234H46.9688V35.3398H49.3711V37.4102H46.9688V41.7461H44.4688ZM56.8711 33.4453C56.8613 35.8184 58.082 38.0156 60.9336 38.8945L59.625 40.8477C57.7109 40.1836 56.4121 38.9629 55.6602 37.3613C54.8789 39.2168 53.4434 40.6719 51.3047 41.3945L49.9961 39.4023C53.0332 38.4258 54.3418 36.043 54.3516 33.5625V31.9414H56.8711V33.4453ZM52.9453 45.3594C52.9453 43.1719 55.2695 41.8926 59.0586 41.9023C62.8574 41.8926 65.1816 43.1719 65.1914 45.3594C65.1816 47.5566 62.8574 48.8066 59.0586 48.7969C55.2695 48.8066 52.9453 47.5566 52.9453 45.3594ZM55.4258 45.3594C55.4258 46.3457 56.7051 46.8633 59.0586 46.8633C61.4219 46.8633 62.7012 46.3457 62.7109 45.3594C62.7012 44.3438 61.4219 43.8359 59.0586 43.8359C56.7051 43.8359 55.4258 44.3438 55.4258 45.3594ZM59.3125 36.3164V34.2852H62.6523V31.0234H65.1328V41.4336H62.6523V36.3164H59.3125ZM76.0117 33.7383V35.7109H67.418V33.7383H70.5039V31.5117H72.9648V33.7383H76.0117ZM67.8281 40.7305C67.8281 38.2598 69.4883 36.5215 71.7539 36.5117C74.0293 36.5215 75.6504 38.2598 75.6602 40.7305C75.6504 43.2109 74.0293 44.9688 71.7539 44.9688C69.4883 44.9688 67.8281 43.2109 67.8281 40.7305ZM70.0156 40.7305C70.0156 42.0879 70.7188 42.8594 71.7539 42.8594C72.75 42.8594 73.4629 42.0879 73.4727 40.7305C73.4629 39.3926 72.75 38.582 71.7539 38.582C70.7188 38.582 70.0156 39.3926 70.0156 40.7305ZM76.6758 48.0352V31.375H79V38.25H80.4453V31.0234H82.8086V48.7969H80.4453V40.2422H79V48.0352H76.6758ZM105.602 44.6953V46.7266H89.332V44.6953H96.1875V41.4141H91.0508V32.1562H93.5508V34.9102H101.305V32.1562H103.785V41.4141H98.668V44.6953H105.602ZM93.5508 39.4219H101.305V36.9023H93.5508V39.4219ZM112.32 35.4961C112.311 38.377 113.111 41.3457 115.543 42.8984L114.195 44.832C112.652 43.9043 111.686 42.3613 111.119 40.5449C110.484 42.5566 109.42 44.2461 107.809 45.2227L106.285 43.3867C108.922 41.7559 109.898 38.6211 109.898 35.6133V32.5469H112.32V35.4961ZM113.668 39.0508V37.0195H115.973V31.2773H118.297V47.9766H115.973V39.0508H113.668ZM119.645 48.7969V31.0234H122.027V48.7969H119.645ZM140.172 44.6758V46.7266H123.902V44.6758H127.535V40.3203C126.158 39.4902 125.328 38.2305 125.328 36.668C125.328 33.7871 128.141 31.8926 132.008 31.8828C135.855 31.8926 138.697 33.7871 138.707 36.668C138.697 38.2012 137.896 39.4414 136.559 40.2715V44.6758H140.172ZM127.789 36.668C127.789 38.4062 129.459 39.4805 132.008 39.4805C134.518 39.4805 136.236 38.4062 136.246 36.668C136.236 34.8809 134.518 33.8457 132.008 33.8555C129.459 33.8457 127.789 34.8809 127.789 36.668ZM129.996 44.6758H134.039V41.2188C133.404 41.3457 132.721 41.4141 132.008 41.4141C131.295 41.4141 130.621 41.3457 129.996 41.2285V44.6758Z" fill="#E2E5EC"/>
</svg>
