<svg width="25" height="22" viewBox="0 0 25 22" fill="none" xmlns="http://www.w3.org/2000/svg">
<g filter="url(#filter0_b_2366_279)">
<rect y="0.807129" width="17.0282" height="17.9622" rx="3.64263" fill="#4634B0"/>
</g>
<g filter="url(#filter1_b_2366_279)">
<rect x="2.8125" y="3.23047" width="17.0282" height="17.9622" rx="3.64263" fill="white" fill-opacity="0.43"/>
<rect x="2.8125" y="3.23047" width="17.0282" height="17.9622" rx="3.64263" stroke="url(#paint0_linear_2366_279)" stroke-width="0.188203"/>
</g>
<g filter="url(#filter2_b_2366_279)">
<path fill-rule="evenodd" clip-rule="evenodd" d="M14.3293 16.827L13.7336 19.0771C13.6985 19.2095 13.815 19.3332 13.9511 19.308L16.0574 18.9168L16.0582 18.9178L24.4083 12.1673C24.7304 11.9069 24.7775 11.437 24.5135 11.1178L23.7411 10.184C23.4771 9.86482 23.0019 9.81717 22.6798 10.0776L14.33 16.8279L14.3293 16.827Z" fill="#4634B0"/>
</g>
<path d="M7.0332 13.9998C7.54854 13.9998 7.96631 13.5858 7.96631 13.0751C7.96631 12.5644 7.54854 12.1504 7.0332 12.1504C6.51786 12.1504 6.1001 12.5644 6.1001 13.0751C6.1001 13.5858 6.51786 13.9998 7.0332 13.9998Z" fill="#4634B0"/>
<path d="M7.0332 10.2068C7.54854 10.2068 7.96631 9.79281 7.96631 9.28212C7.96631 8.77142 7.54854 8.35742 7.0332 8.35742C6.51786 8.35742 6.1001 8.77142 6.1001 9.28212C6.1001 9.79281 6.51786 10.2068 7.0332 10.2068Z" fill="#4634B0"/>
<path d="M12.9615 8.38281H9.86219C9.39464 8.38281 9.01562 8.75842 9.01562 9.22174V9.34297C9.01562 9.8063 9.39464 10.1819 9.86219 10.1819H12.9615C13.429 10.1819 13.808 9.8063 13.808 9.34297V9.22174C13.808 8.75842 13.429 8.38281 12.9615 8.38281Z" fill="#4634B0"/>
<path d="M14.4503 12.1758H9.86219C9.39464 12.1758 9.01562 12.5514 9.01562 13.0147V13.1359C9.01562 13.5993 9.39464 13.9749 9.86219 13.9749H14.4503C14.9178 13.9749 15.2968 13.5993 15.2968 13.1359V13.0147C15.2968 12.5514 14.9178 12.1758 14.4503 12.1758Z" fill="#4634B0"/>
<defs>
<filter id="filter0_b_2366_279" x="-2.9295" y="-2.12238" width="22.8873" height="23.8214" filterUnits="userSpaceOnUse" color-interpolation-filters="sRGB">
<feFlood flood-opacity="0" result="BackgroundImageFix"/>
<feGaussianBlur in="BackgroundImageFix" stdDeviation="1.46475"/>
<feComposite in2="SourceAlpha" operator="in" result="effect1_backgroundBlur_2366_279"/>
<feBlend mode="normal" in="SourceGraphic" in2="effect1_backgroundBlur_2366_279" result="shape"/>
</filter>
<filter id="filter1_b_2366_279" x="-0.705811" y="-0.287842" width="24.0645" height="24.9985" filterUnits="userSpaceOnUse" color-interpolation-filters="sRGB">
<feFlood flood-opacity="0" result="BackgroundImageFix"/>
<feGaussianBlur in="BackgroundImageFix" stdDeviation="1.71204"/>
<feComposite in2="SourceAlpha" operator="in" result="effect1_backgroundBlur_2366_279"/>
<feBlend mode="normal" in="SourceGraphic" in2="effect1_backgroundBlur_2366_279" result="shape"/>
</filter>
<filter id="filter2_b_2366_279" x="12.977" y="9.15962" width="12.4576" height="10.9015" filterUnits="userSpaceOnUse" color-interpolation-filters="sRGB">
<feFlood flood-opacity="0" result="BackgroundImageFix"/>
<feGaussianBlur in="BackgroundImageFix" stdDeviation="0.375023"/>
<feComposite in2="SourceAlpha" operator="in" result="effect1_backgroundBlur_2366_279"/>
<feBlend mode="normal" in="SourceGraphic" in2="effect1_backgroundBlur_2366_279" result="shape"/>
</filter>
<linearGradient id="paint0_linear_2366_279" x1="10.017" y1="3.53887" x2="15.481" y2="22.2073" gradientUnits="userSpaceOnUse">
<stop offset="0.193385" stop-color="white"/>
<stop offset="1" stop-color="#9BABFB" stop-opacity="0"/>
</linearGradient>
</defs>
</svg>
