<svg width="216" height="48" viewBox="0 0 216 48" fill="none" xmlns="http://www.w3.org/2000/svg">
<path d="M10.3652 1.72266C10.3457 7.19141 8.8418 11.8496 2.12305 15.1406L0.814453 13.2266C3.74414 11.7715 5.58008 10.1113 6.6543 8.11914L1.26367 8.59766L0.951172 6.48828L7.45508 6.09766C7.66992 5.35547 7.79688 4.55469 7.875 3.71484H1.86914V1.72266H10.3652ZM13.0801 17.7969V0.0234375H15.5996V17.7969H13.0801ZM33.1191 0.0429688V17.7969H30.5801V13.8711H26.9668V11.9961H30.5801V0.0429688H33.1191ZM17.8652 9.04688C21.1953 9.04688 25.6094 9.02734 29.4473 8.51953L29.584 10.3359C28.0215 10.6094 26.4199 10.7852 24.8379 10.8926V17.2695H22.3184V11.0195C20.8438 11.0684 19.4375 11.0781 18.1777 11.0781L17.8652 9.04688ZM19.1152 4.39844C19.1055 2.25977 21.0195 0.755859 23.6855 0.746094C26.3125 0.755859 28.2461 2.25977 28.2559 4.39844C28.2461 6.58594 26.3125 8.03125 23.6855 8.03125C21.0195 8.03125 19.1055 6.58594 19.1152 4.39844ZM21.459 4.39844C21.4492 5.51172 22.3574 6.13672 23.6855 6.13672C24.9648 6.13672 25.873 5.51172 25.8926 4.39844C25.873 3.31445 24.9746 2.64062 23.6855 2.64062C22.3574 2.64062 21.4492 3.31445 21.459 4.39844ZM49.7207 8.24609V10.2383H37.1426V1.50781H49.584V3.51953H39.6035V8.24609H49.7207ZM35.2285 15.6289V13.5781H51.498V15.6289H35.2285ZM68.7637 7.99219V9.84766H52.4941V7.99219H68.7637ZM54.3496 12.4453V10.7266H66.8105V14.9258H56.8496V15.9414H67.3379V17.6406H54.3691V13.3438H64.3496V12.4453H54.3496ZM54.4863 2.03516V0.335938H66.791V4.51562H57.0059V5.47266H67.1035V7.15234H54.5254V2.93359H64.291V2.03516H54.4863ZM80.2285 16.1953C77.123 16.1953 74.8965 14.4863 74.8379 12.0156H77.8066C77.8555 13.0703 78.8809 13.7637 80.248 13.7734C81.6543 13.7637 82.6602 12.9824 82.6504 11.8398C82.6602 10.6875 81.6348 9.87695 79.9746 9.86719H78.666V7.69922H79.9746C81.3711 7.69922 82.3477 6.9375 82.3379 5.82422C82.3477 4.74023 81.5176 3.99805 80.2676 4.00781C79.0176 3.99805 77.9922 4.70117 77.9434 5.78516H75.1309C75.1797 3.35352 77.3672 1.66406 80.2676 1.66406C83.2168 1.66406 85.1797 3.41211 85.1699 5.64844C85.1797 7.23047 84.0762 8.35352 82.4941 8.63672V8.75391C84.5742 9.00781 85.7168 10.2676 85.6973 12.0352C85.7168 14.457 83.4219 16.1953 80.2285 16.1953ZM102.514 0.0234375V17.7969H100.111V8.75391H98.4902V17.0156H96.166V0.492188H98.4902V6.76172H100.111V0.0234375H102.514ZM86.9668 12.4258C90.5898 10.2969 92.1523 7.68945 92.4844 4.20312H87.8652V2.21094H94.916C94.9062 7.17188 93.4219 11.2344 88.4121 14.1445L86.9668 12.4258ZM123.959 0.0234375V17.8359H121.439V0.0234375H123.959ZM109.604 7.60156C109.594 3.72461 111.576 1.27344 114.311 1.27344C116.986 1.27344 118.979 3.72461 118.979 7.60156C118.979 11.5078 116.986 13.9492 114.311 13.9492C111.576 13.9492 109.594 11.5078 109.604 7.60156ZM112.006 7.60156C111.996 10.248 112.924 11.6934 114.311 11.6836C115.658 11.6934 116.566 10.248 116.576 7.60156C116.566 4.96484 115.658 3.51953 114.311 3.51953C112.924 3.51953 111.996 4.96484 112.006 7.60156ZM132.846 2.81641C132.836 4.97461 134.096 7.04492 136.908 7.91406L135.58 9.84766C133.695 9.22266 132.377 8.01172 131.615 6.45898C130.844 8.24609 129.467 9.65234 127.436 10.3359L126.088 8.38281C129.057 7.39648 130.326 5.0332 130.346 2.58203V0.960938H132.846V2.81641ZM128.549 14.3594C128.539 12.2012 130.893 10.9219 134.643 10.9219C138.324 10.9219 140.629 12.2012 140.639 14.3594C140.629 16.5371 138.324 17.8066 134.643 17.7969C130.893 17.8066 128.539 16.5371 128.549 14.3594ZM131.049 14.3594C131.029 15.3652 132.309 15.8438 134.643 15.8438C136.947 15.8438 138.178 15.3652 138.178 14.3594C138.178 13.3926 136.947 12.875 134.643 12.875C132.309 12.875 131.029 13.3926 131.049 14.3594ZM137.963 10.5703V0.0234375H140.463V4.18359H142.865V6.25391H140.463V10.5703H137.963ZM163.197 0.0234375V17.7969H160.678V0.0234375H163.197ZM148.314 12.7578C152.904 10.5898 154.926 7.77734 155.326 3.83203H149.271V1.87891H157.865C157.855 7.26953 155.971 11.752 149.623 14.75L148.314 12.7578ZM181.791 9.55469V11.5469H165.521V9.55469H172.416V8.26562H167.553V3.38281H177.318V2.28906H167.514V0.355469H179.818V5.17969H170.033V6.35156H180.15V8.26562H174.896V9.55469H181.791ZM167.338 14.5156V12.5625H179.916V17.7188H177.396V14.5156H167.338ZM196.85 0.0234375V6.97656H199.467V9.02734H196.85V17.7969H194.389V0.0234375H196.85ZM182.729 4.67188V2.67969H186.752V0.296875H189.252V2.67969H193.178V4.67188H182.729ZM183.451 9.90625C183.441 7.42578 185.375 5.6582 188.002 5.66797C190.59 5.6582 192.533 7.42578 192.533 9.90625C192.533 12.3867 190.59 14.1348 188.002 14.1445C185.375 14.1348 183.441 12.3867 183.451 9.90625ZM185.834 9.90625C185.834 11.2832 186.742 12.1035 188.002 12.0938C189.242 12.1035 190.15 11.2832 190.15 9.90625C190.15 8.53906 189.242 7.69922 188.002 7.67969C186.742 7.69922 185.834 8.53906 185.834 9.90625ZM209.291 1.46875V2.81641H212.611V0.0429688H215.092V12.9727H212.611V8.61719H209.291V10.1211H200.854V1.46875H209.291ZM203.256 17.4844V11.7422H205.775V15.4922H215.463V17.4844H203.256ZM203.334 8.1875H206.85V3.44141H203.334V8.1875ZM209.291 6.64453H212.611V4.82812H209.291V6.64453ZM37.3184 31.8008V33.7344H33.8027C33.8613 35.1309 35.1211 36.4102 37.748 36.8984L36.7715 38.8125C34.7598 38.4219 33.373 37.5332 32.582 36.3418C31.8008 37.6504 30.3848 38.6465 28.2949 39.0664L27.2793 37.1328C29.9648 36.625 31.2148 35.2285 31.2832 33.7344H27.748V31.8008H31.3027V30.0625H33.8027V31.8008H37.3184ZM26.6738 39.8281C29.9551 39.8281 34.3301 39.7988 38.0801 39.3203L38.2363 41.1172C36.7715 41.3711 35.2676 41.5371 33.7832 41.6445V47.25H31.3027V41.7812C29.7598 41.8398 28.2852 41.8398 26.9863 41.8398L26.6738 39.8281ZM39.1543 47.7969V30.043H41.6152V47.7969H39.1543ZM60.3262 32.6211V34.6328H58.0215V36.4492H60.3262V38.4805H58.0215V41.3125H55.5215V30.0234H58.0215V32.6211H60.3262ZM43.9199 33.6562V31.7227H47.9629V29.9258H50.4434V31.7227H54.4668V33.6562H43.9199ZM44.7793 37.4648C44.7793 35.5703 46.5762 34.2715 49.1934 34.2617C51.7812 34.2715 53.5684 35.5703 53.5684 37.4648C53.5684 39.3789 51.7812 40.6484 49.1934 40.6484C46.5859 40.6484 44.7793 39.3789 44.7793 37.4648ZM46.2051 44.6523C46.1855 42.6504 48.4805 41.4785 52.2207 41.4688C55.873 41.4785 58.207 42.6504 58.2168 44.6523C58.207 46.6055 55.873 47.8066 52.2207 47.7969C48.4805 47.8066 46.1855 46.6055 46.2051 44.6523ZM47.2207 37.4648C47.2109 38.3438 48.002 38.8027 49.1934 38.793C50.3945 38.8027 51.2051 38.3438 51.2051 37.4648C51.2051 36.5762 50.3945 36.0879 49.1934 36.0781C48.002 36.0879 47.2109 36.5762 47.2207 37.4648ZM48.666 44.6523C48.6562 45.4824 49.8867 45.9414 52.2207 45.9414C54.4863 45.9414 55.7168 45.4824 55.7168 44.6523C55.7168 43.7637 54.4863 43.373 52.2207 43.3633C49.8867 43.373 48.6562 43.7637 48.666 44.6523ZM69.3105 30.2773C73.4023 30.2773 75.7656 31.3516 75.7754 33.3047C75.7656 35.2871 73.4023 36.3516 69.3105 36.3516C65.209 36.3516 62.8262 35.2871 62.8262 33.3047C62.8262 31.3516 65.209 30.2773 69.3105 30.2773ZM61.2051 39.1641V37.1914H77.416V39.1641H61.2051ZM63.0801 42.0156V40.1992H75.4434V44.7305H65.541V45.8047H75.9121V47.6797H63.0996V42.9922H72.9824V42.0156H63.0801ZM65.4434 33.3047C65.4336 34.1738 66.7031 34.5156 69.3105 34.5156C71.9375 34.5156 73.1973 34.1738 73.1973 33.3047C73.1973 32.5137 71.9375 32.0938 69.3105 32.0938C66.7031 32.0938 65.4336 32.5137 65.4434 33.3047ZM99.3496 39.1445V41.0977H92.6504V43.9688H90.1895V41.0977H83.0801V39.1445H99.3496ZM84.9941 47.4844V42.5625H87.4551V45.4922H97.5527V47.4844H84.9941ZM85.1699 37.8945V30.5898H87.6309V32.4453H94.7598V30.5898H97.2402V37.8945H85.1699ZM87.6309 35.9219H94.7598V34.3008H87.6309V35.9219ZM107.045 32.7969C107.035 35.0137 108.275 37.1621 111.088 38.0508L109.76 40.0234C107.855 39.3789 106.547 38.0996 105.795 36.4883C105.014 38.2461 103.617 39.623 101.615 40.3359L100.268 38.3438C103.246 37.3965 104.516 35.0723 104.525 32.6406V30.9414H107.045V32.7969ZM103.158 43.3828V41.4102H115.365V47.7969H112.885V43.3828H103.158ZM109.545 35.375V33.3242H112.885V30.0234H115.365V40.6094H112.885V35.375H109.545ZM126.244 32.7383V34.7109H117.65V32.7383H120.736V30.5117H123.197V32.7383H126.244ZM118.061 39.7305C118.061 37.2598 119.721 35.5215 121.986 35.5117C124.262 35.5215 125.883 37.2598 125.893 39.7305C125.883 42.2109 124.262 43.9688 121.986 43.9688C119.721 43.9688 118.061 42.2109 118.061 39.7305ZM120.248 39.7305C120.248 41.0879 120.951 41.8594 121.986 41.8594C122.982 41.8594 123.695 41.0879 123.705 39.7305C123.695 38.3926 122.982 37.582 121.986 37.582C120.951 37.582 120.248 38.3926 120.248 39.7305ZM126.908 47.0352V30.375H129.232V37.25H130.678V30.0234H133.041V47.7969H130.678V39.2422H129.232V47.0352H126.908ZM154.057 38.2461V40.2383H141.479V31.5078H153.92V33.5195H143.939V38.2461H154.057ZM139.564 45.6289V43.5781H155.834V45.6289H139.564ZM171.83 30.0234V47.8359H169.35V40.668H166.303V38.6172H169.35V35.8242H166.361V33.793H169.35V30.0234H171.83ZM157.436 33.4805V31.5078H165.424V38.3438H159.955V41.8105C162.152 41.791 164.096 41.6934 166.342 41.3516L166.537 43.3828C163.881 43.8027 161.615 43.8613 158.881 43.8516H157.475V36.4102H162.982V33.4805H157.436ZM190.404 43.6758V45.7266H174.135V43.6758H177.768V39.3203C176.391 38.4902 175.561 37.2305 175.561 35.668C175.561 32.7871 178.373 30.8926 182.24 30.8828C186.088 30.8926 188.93 32.7871 188.939 35.668C188.93 37.2012 188.129 38.4414 186.791 39.2715V43.6758H190.404ZM178.021 35.668C178.021 37.4062 179.691 38.4805 182.24 38.4805C184.75 38.4805 186.469 37.4062 186.479 35.668C186.469 33.8809 184.75 32.8457 182.24 32.8555C179.691 32.8457 178.021 33.8809 178.021 35.668ZM180.229 43.6758H184.271V40.2188C183.637 40.3457 182.953 40.4141 182.24 40.4141C181.527 40.4141 180.854 40.3457 180.229 40.2285V43.6758Z" fill="#E2E5EC"/>
</svg>
