<svg width="54" height="54" viewBox="0 0 54 54" fill="none" xmlns="http://www.w3.org/2000/svg">
<rect width="54" height="54" rx="27" fill="#12161C"/>
<path d="M32.6469 26.5502C32.2501 25.2521 31.1138 24.2554 29.1754 24.2554C28.7034 24.2554 28.2773 24.3141 27.8971 24.4271C27.8762 24.6574 27.847 24.8878 27.8136 25.1139C27.801 25.1851 27.7927 25.2521 27.7885 25.3233C28.177 25.1265 28.6407 25.0218 29.1754 25.0218C30.9049 25.0218 31.9033 26.1357 31.9033 27.6683C31.9033 27.9238 31.8741 28.1709 31.8156 28.4012C31.6318 29.1968 31.118 29.8166 30.3368 30.1181C29.9984 30.2479 29.6099 30.3149 29.1796 30.3149C27.8094 30.3149 26.8945 29.6114 26.5812 28.5561C26.5227 28.376 26.4851 28.1834 26.4684 27.9824C26.4559 27.8819 26.4517 27.7772 26.4517 27.6683C26.4517 27.4548 26.4726 27.2454 26.5144 27.0486C26.4475 26.6172 26.2763 26.1817 26.0507 25.7839C25.7081 26.3325 25.541 26.9899 25.541 27.6683C25.541 28.1667 25.6329 28.6482 25.8167 29.0879C25.8501 29.1801 25.8919 29.268 25.9421 29.3518C26.4684 30.361 27.5337 31.0812 29.1796 31.0812C29.6391 31.0812 30.0569 31.0226 30.4287 30.9179C30.7002 30.8425 30.9509 30.742 31.1764 30.6164C31.6527 30.3568 32.0203 30.0008 32.2877 29.5821C32.4213 29.3727 32.53 29.1508 32.6093 28.9121C32.7346 28.5645 32.8015 28.1918 32.814 27.8107C32.8182 27.7647 32.8182 27.7144 32.8182 27.6683C32.8182 27.2831 32.7639 26.902 32.6511 26.5502H32.6469Z" fill="white"/>
<path d="M27.8965 24.427C27.8756 24.6573 27.8464 24.8876 27.813 25.1138C27.8004 25.185 27.7921 25.252 27.7879 25.3232C27.1028 25.6623 26.6558 26.2779 26.5096 27.0484C26.4428 26.6171 26.2715 26.1816 26.0459 25.7838C26.2882 25.3943 26.6182 25.0551 27.0401 24.7997C27.0736 24.7788 27.1112 24.7536 27.1488 24.7327C27.3743 24.6071 27.625 24.5024 27.8965 24.427Z" fill="white"/>
<path d="M32.1705 28.7025C32.1705 28.1665 32.2665 27.6138 32.4545 27.0526C32.6467 26.4789 32.9015 25.922 33.2232 25.386C33.5574 24.8374 33.9375 24.3223 34.3678 23.8449C34.7981 23.355 35.2576 22.932 35.7464 22.5719C36.2352 22.1992 36.7323 21.9144 37.2294 21.7092C37.7432 21.4957 38.2362 21.3868 38.7124 21.3868C39.0926 21.3868 39.4142 21.4454 39.6774 21.5668C39.9531 21.6883 40.1745 21.8558 40.3374 22.0694C40.5045 22.2829 40.6257 22.5426 40.6967 22.8399C40.7803 23.1288 40.822 23.4429 40.822 23.7905C40.822 24.2804 40.7218 24.7997 40.5171 25.3525C40.3249 25.901 40.0617 26.4454 39.7317 26.9856C39.41 27.5216 39.0299 28.0367 38.5871 28.5267C38.1443 29.004 37.6806 29.4354 37.1918 29.8164C36.703 30.1891 36.2017 30.4865 35.6879 30.7126C35.1866 30.9262 34.6978 31.035 34.2216 31.035C33.5198 31.035 32.9976 30.8215 32.6634 30.3902C32.3292 29.9463 32.1621 29.3851 32.1621 28.7025H32.1705ZM33.2441 28.7737C33.2441 29.0376 33.2608 29.2888 33.2984 29.5275C33.3443 29.7662 33.4195 29.9756 33.5114 30.1556C33.6201 30.3357 33.7496 30.4781 33.9041 30.587C34.0712 30.6958 34.2801 30.7503 34.5307 30.7503C35.1156 30.7503 35.713 30.5451 36.3187 30.1389C36.937 29.7201 37.5009 29.1757 38.0022 28.5057C38.5161 27.8357 38.9338 27.0777 39.2555 26.2277C39.5897 25.3776 39.7568 24.5233 39.7568 23.6648C39.7568 23.401 39.7275 23.1498 39.6691 22.9111C39.6231 22.6724 39.5312 22.463 39.4017 22.2829C39.2805 22.0903 39.126 21.9437 38.938 21.8349C38.7458 21.726 38.5077 21.6715 38.2236 21.6715C37.6973 21.6715 37.1458 21.8851 36.561 22.3164C35.9762 22.7478 35.4414 23.3047 34.9527 23.9831C34.4639 24.6615 34.0587 25.4278 33.737 26.2779C33.4154 27.1154 33.2524 27.9446 33.2524 28.7695L33.2441 28.7737Z" fill="white"/>
<path fill-rule="evenodd" clip-rule="evenodd" d="M40.8304 16.4957C40.3917 16.4957 40.0408 16.8516 40.0408 17.2871C40.0408 17.7226 40.3917 18.0786 40.8304 18.0786C41.269 18.0786 41.6199 17.7268 41.6199 17.2871C41.6199 16.8474 41.2648 16.4957 40.8304 16.4957ZM20.0348 36.5501C19.5962 36.5501 19.2453 36.9061 19.2453 37.3416C19.2453 37.7771 19.5962 38.1373 20.0348 38.1373C20.4735 38.1373 20.8244 37.7813 20.8244 37.3416C20.8244 36.9019 20.4693 36.5501 20.0348 36.5501ZM42.7228 28.7361C41.5907 27.4421 40.9808 25.4278 41.7745 23.8994C43.3578 20.855 44.2517 17.396 44.2517 13.7277C44.2517 13.4345 44.0178 13.2 43.7254 13.2C43.4329 13.2 43.199 13.4345 43.199 13.7277C43.199 15.6246 42.9484 17.463 42.4763 19.2092C42.3886 19.5401 41.9625 19.6657 41.6199 19.6657C41.3275 19.6657 41.0685 19.7829 40.8763 19.9714C40.6842 20.164 40.5672 20.4278 40.5672 20.721C40.5672 21.3491 41.0142 22.1448 41.0142 22.798C41.0142 22.9655 40.9849 23.1205 40.9139 23.2628C40.8805 23.3257 40.8513 23.3885 40.8137 23.4471C40.4043 24.2427 39.9406 25.0049 39.4267 25.7335C39.3265 25.8843 39.2179 26.035 39.1093 26.1858C38.9923 26.3449 38.7959 26.4161 38.5996 26.3826C38.2988 26.3282 38.0941 26.035 38.0941 25.7461C38.0941 25.6414 38.1192 25.5367 38.1777 25.4446C38.7876 24.4521 39.1677 23.3047 39.2388 22.0736C39.2471 21.9312 39.2513 21.7888 39.2513 21.6422C39.2513 21.5711 39.2513 21.4999 39.2471 21.4287C39.1343 17.5174 35.9385 14.3851 32.0117 14.3851C30.7417 14.3851 29.5512 14.7117 28.511 15.2896C26.9319 16.1648 24.6426 16.3198 23.0468 15.4697C21.756 14.7787 20.2813 14.3851 18.7189 14.3851C13.6308 14.3851 9.50341 18.5225 9.50341 23.623C9.50341 27.463 11.8428 30.7545 15.1723 32.1448C15.4396 32.2578 15.7153 32.3583 15.9952 32.4463C16.8558 32.7143 17.7707 32.8567 18.7189 32.8567C21.6432 32.8567 24.2499 31.4873 25.9376 29.3516C26.063 29.1967 26.1841 29.0334 26.2969 28.8701C26.3763 28.7528 26.4724 28.6481 26.5768 28.556C27.1825 27.9907 28.135 27.8315 28.8869 28.1917C29.5804 28.5225 30.1277 29.3014 30.3324 30.118C30.3908 30.3483 30.4243 30.5828 30.4243 30.8131C30.4243 30.8466 30.4243 30.8843 30.4201 30.9178C30.4159 31.0895 30.3908 31.2612 30.3407 31.4203C30.2739 31.6339 30.2196 31.8516 30.1736 32.0736C30.0399 32.7562 29.6264 33.3843 28.9663 33.6063C26.865 34.3181 24.6092 34.7034 22.2656 34.7034C19.6505 34.7034 17.1482 34.2218 14.8422 33.3424C14.3576 33.1624 13.8814 32.9614 13.4177 32.7394C12.3357 32.2369 11.2997 31.6381 10.3264 30.9597C10.0883 30.7922 9.75823 30.8508 9.59531 31.0895C9.42821 31.3282 9.4867 31.659 9.72481 31.8223C11.4794 33.0493 13.4219 34.0208 15.4981 34.695C15.7112 34.7662 15.8156 35.0091 15.8156 35.231C15.8156 35.5242 15.9326 35.788 16.1247 35.9764C16.3169 36.1691 16.5801 36.2863 16.8725 36.2863C17.6537 36.2863 18.5184 35.5744 19.3038 35.5744C19.3539 35.5744 19.404 35.5744 19.4542 35.5828C20.3774 35.7001 21.3132 35.7587 22.2656 35.7587C23.828 35.7587 25.3528 35.5954 26.8191 35.2855C28.5026 34.9295 30.2739 36.0644 31.2222 37.5049C32.5172 39.4731 34.7438 40.7754 37.2712 40.7754C41.269 40.7754 44.5107 37.5259 44.5107 33.5183C44.5107 31.6883 43.834 30.0133 42.7186 28.7361H42.7228ZM28.8243 27.865C27.9261 27.4044 27.6713 26.3366 27.7883 25.3232C27.1032 25.6624 26.6562 26.2779 26.51 27.0485C26.5559 27.3625 26.5475 27.6808 26.464 27.9823C26.4139 28.1624 26.3345 28.3382 26.2259 28.5057C26.0964 28.7067 25.9585 28.8994 25.8123 29.0878C24.1789 31.2235 21.6098 32.5929 18.7189 32.5929C17.8124 32.5929 16.9393 32.4588 16.1164 32.2076C15.8407 32.1238 15.5691 32.0275 15.3059 31.9186C12.0558 30.5744 9.76659 27.3667 9.76659 23.623C9.76659 18.6648 13.7728 14.6489 18.7189 14.6489C20.9121 14.6489 22.9257 15.4446 24.4839 16.7595C25.3068 17.4546 25.3277 18.6481 25.0395 19.6866C24.864 20.3106 24.7721 20.9638 24.7721 21.6422C24.7721 23.0786 25.1899 24.4186 25.9084 25.5493C25.9585 25.6247 26.0045 25.7042 26.0462 25.7838C26.2885 25.3943 26.6186 25.0551 27.0405 24.7997C26.8859 24.8835 26.7146 24.9253 26.5434 24.9253C26.1173 24.9253 25.687 24.6615 25.4739 24.0836C25.1899 23.3257 25.0353 22.5007 25.0353 21.6422C25.0353 19.9923 26.9987 19.829 27.3998 21.4287C27.5752 22.1322 27.6671 22.865 27.6671 23.623C27.6671 24.1422 27.4499 24.5191 27.1491 24.7327C27.3747 24.6071 27.6253 24.5024 27.8969 24.427C27.9178 24.1632 27.9303 23.8952 27.9303 23.623C27.9303 22.1615 27.5919 20.7754 26.9904 19.5484C26.51 18.5727 26.3804 17.3709 27.1616 16.6171C28.4149 15.3985 30.1277 14.6489 32.0117 14.6489C35.7798 14.6489 38.8544 17.6473 38.9839 21.3952C38.9881 21.4789 38.9881 21.5585 38.9881 21.6422C38.9881 21.7176 38.9881 21.7888 38.9839 21.8642C38.9463 23.1247 38.5704 24.3014 37.9521 25.3064C37.5594 25.9513 36.8116 26.2361 36.0722 26.3617C35.0989 26.525 34.1923 26.8809 33.3944 27.396C33.1898 27.5217 32.9976 27.6598 32.8096 27.8106C32.8012 27.8148 32.7929 27.819 32.7845 27.8273C32.6007 27.9739 32.4002 28.1121 32.1955 28.2252C32.0702 28.2964 31.9449 28.355 31.8154 28.401C31.4728 28.5351 31.1135 28.5895 30.7417 28.5225C30.065 28.3969 29.4217 28.1707 28.8243 27.865ZM34.8816 28.0158C34.3386 28.2629 33.9459 28.0074 33.9459 27.6892C33.9459 27.5007 34.0837 27.2913 34.4054 27.1448C35.2701 26.7511 35.7505 27.6263 34.8816 28.0158ZM31.1637 30.5158C31.1637 30.2603 31.2472 29.9798 31.4352 29.6908C31.6232 29.4019 31.8906 29.2009 32.1913 29.0627C32.325 29.0041 32.4629 28.9538 32.6049 28.9119C32.7511 28.8743 32.8973 28.8449 33.0477 28.824C33.1146 28.8156 33.1814 28.8031 33.2441 28.7905C34.7647 28.5351 36.1223 27.798 37.1584 26.7428C37.2837 26.6171 37.455 26.5376 37.6346 26.5376H37.6722C38.1693 26.5627 38.374 27.1322 38.0482 27.5091C36.9954 28.7193 35.8049 29.8081 34.5057 30.7461C34.372 30.8466 34.2425 30.9387 34.1046 31.0309C33.9083 31.1691 33.7078 31.3031 33.5031 31.4329C32.4253 32.1197 31.2472 31.5501 31.172 30.6163C31.1637 30.5828 31.1637 30.5493 31.1637 30.5158ZM37.2753 40.5116C34.3553 40.5116 31.8571 38.711 30.8169 36.1607C30.3699 35.0677 31.101 33.9455 32.1537 33.4136C34.2926 32.3332 36.231 30.9136 37.8978 29.2218C37.902 29.2134 37.9103 29.2093 37.9145 29.2051C38.1275 28.9873 38.3364 28.7654 38.5411 28.5392C38.6205 28.4513 38.7082 28.3675 38.7959 28.2922C39.5897 27.5928 40.705 27.3332 41.5447 27.9865C43.1907 29.2637 44.2517 31.2654 44.2517 33.5183C44.2517 37.3793 41.127 40.5116 37.2753 40.5116Z" fill="#5458B0"/>
<path d="M17.1275 29.8081L19.5463 24.4522H20.5322L17.0523 32.082C16.597 33.0954 16.1751 33.3802 15.1766 33.3802H14.7338C14.5876 33.3802 14.4372 33.3676 14.3035 33.3551V32.5887C14.4999 32.6013 14.7088 32.6138 14.9594 32.6138C15.6153 32.6138 15.9328 32.4673 16.2294 31.8224L16.6471 30.9304L13.5391 24.448H14.5124L17.1275 29.804V29.8081Z" fill="white"/>
<path d="M18.9902 27.6683C18.9902 25.876 20.1641 24.2554 22.6288 24.2554C25.0935 24.2554 26.2674 25.876 26.2674 27.6683C26.2674 29.4606 25.0935 31.0812 22.6288 31.0812C20.1641 31.0812 18.9902 29.4606 18.9902 27.6683ZM19.9051 27.6683C19.9051 29.201 20.9035 30.3149 22.633 30.3149C24.3625 30.3149 25.3609 29.201 25.3609 27.6683C25.3609 26.1357 24.3625 25.0218 22.633 25.0218C20.9035 25.0218 19.9051 26.1357 19.9051 27.6683Z" fill="white"/>
<mask id="mask0_2349_7269" style="mask-type:luminance" maskUnits="userSpaceOnUse" x="24" y="23" width="10" height="9">
<path d="M24.7012 23.4179V31.9188H33.6493V23.4179H24.7012ZM26.2594 27.8945C26.2051 27.8987 26.1508 27.9028 26.1006 27.9028C25.9001 27.9028 25.7163 27.861 25.5659 27.7856C25.4865 27.7437 25.4239 27.6976 25.357 27.6516C25.357 27.3291 25.3069 27.0276 25.2192 26.7471C25.3069 26.3409 25.4531 25.964 25.6536 25.629C26.0672 26.211 26.2719 26.9229 26.2719 27.6683C26.2719 27.7437 26.2636 27.8191 26.2594 27.8945ZM26.9194 27.1365C26.8985 27.2454 26.886 27.3585 26.8776 27.4715L26.5518 27.8484C26.5309 27.8526 26.51 27.8568 26.4891 27.861C26.5434 27.5971 26.5476 27.3208 26.51 27.0486C26.5602 26.7931 26.6437 26.5544 26.7565 26.3409C26.8317 26.5586 26.8902 26.7764 26.9236 26.9858V27.1365H26.9194ZM33.2232 27.8526C33.2149 28.175 33.1606 28.5059 33.0687 28.8199C33.0603 28.8199 33.052 28.8199 33.0436 28.8199C32.8932 28.8409 32.747 28.8702 32.6008 28.9079C32.4588 28.9497 32.3251 29 32.1914 29.0586C32.1914 29.0586 32.1914 29.0586 32.1872 29.0586C32.112 29.0921 32.041 29.1298 31.9742 29.1717C31.7695 29.2973 31.5898 29.4564 31.4478 29.6658C31.4436 29.6742 31.4353 29.6826 31.4311 29.691C31.2431 29.9799 31.1596 30.2605 31.1596 30.5159C31.1596 30.5494 31.1596 30.5829 31.1679 30.6164C31.1805 30.763 31.2222 30.9012 31.2849 31.0226C31.0551 31.1399 30.8045 31.2446 30.5329 31.3199C30.4786 31.3367 30.416 31.3451 30.3575 31.3576C30.3951 31.2152 30.4202 31.0687 30.4243 30.9179C30.4285 30.8844 30.4285 30.8467 30.4285 30.8132C30.4285 30.5829 30.3951 30.3484 30.3366 30.1181C30.3032 29.9841 30.2572 29.8501 30.2071 29.7203C30.7585 29.5025 31.147 29.0879 31.3392 28.5268C31.3434 28.5268 31.3517 28.5268 31.3559 28.5268C31.5147 28.5017 31.6692 28.464 31.8196 28.4012C31.9491 28.3551 32.0744 28.2965 32.1998 28.2253C32.4045 28.1122 32.605 27.974 32.7888 27.8275C32.7971 27.8191 32.8055 27.8149 32.8138 27.8107C32.9475 27.706 33.0854 27.6139 33.2274 27.5176C33.2274 27.5678 33.2358 27.6181 33.2358 27.6683C33.2358 27.727 33.2358 27.794 33.2274 27.8526H33.2232Z" fill="white"/>
</mask>
<g mask="url(#mask0_2349_7269)">
<path d="M32.6469 26.5502C32.2501 25.252 31.1138 24.2554 29.1754 24.2554C28.7034 24.2554 28.2773 24.314 27.8971 24.4271C27.8762 24.6574 27.847 24.8877 27.8136 25.1138C27.801 25.185 27.7927 25.252 27.7885 25.3232C28.177 25.1264 28.6407 25.0217 29.1754 25.0217C30.9049 25.0217 31.9033 26.1356 31.9033 27.6683C31.9033 27.9237 31.8741 28.1708 31.8156 28.4011C31.6318 29.1968 31.118 29.8165 30.3368 30.118C29.9984 30.2478 29.6099 30.3148 29.1796 30.3148C27.8094 30.3148 26.8945 29.6113 26.5812 28.556C26.5227 28.376 26.4851 28.1834 26.4684 27.9823C26.4559 27.8818 26.4517 27.7772 26.4517 27.6683C26.4517 27.4547 26.4726 27.2453 26.5144 27.0485C26.4475 26.6172 26.2763 26.1817 26.0507 25.7838C25.7081 26.3324 25.541 26.9899 25.541 27.6683C25.541 28.1666 25.6329 28.6482 25.8167 29.0879C25.8501 29.18 25.8919 29.2679 25.9421 29.3517C26.4684 30.3609 27.5337 31.0812 29.1796 31.0812C29.6391 31.0812 30.0569 31.0226 30.4287 30.9179C30.7002 30.8425 30.9509 30.742 31.1764 30.6164C31.6527 30.3567 32.0203 30.0008 32.2877 29.582C32.4213 29.3726 32.53 29.1507 32.6093 28.912C32.7346 28.5644 32.8015 28.1917 32.814 27.8107C32.8182 27.7646 32.8182 27.7143 32.8182 27.6683C32.8182 27.283 32.7639 26.9019 32.6511 26.5502H32.6469Z" fill="white"/>
</g>
<mask id="mask1_2349_7269" style="mask-type:luminance" maskUnits="userSpaceOnUse" x="25" y="23" width="4" height="5">
<path d="M25.2109 23.5895V27.886H28.7326V23.5895H25.2109ZM28.2271 25.1556C28.0725 25.2017 27.9221 25.2561 27.7884 25.3232C27.7676 25.4948 27.7634 25.6623 27.7676 25.834C27.3289 26.123 27.0281 26.5711 26.9195 27.128L26.5185 27.1196C26.5185 27.0945 26.5185 27.0736 26.5101 27.0484C26.506 27.0736 26.5018 27.0945 26.4976 27.1196L26.0966 27.1113C26.0423 26.7595 25.9002 26.3701 25.683 25.989L25.6913 25.6749C25.7707 25.7922 25.8459 25.9178 25.9086 26.0476C25.9545 25.9597 25.9921 25.8675 26.0464 25.7796C26.0047 25.7 25.9587 25.6205 25.9086 25.5451C25.8752 25.4948 25.8459 25.4362 25.8125 25.386C25.942 25.2017 26.0882 25.03 26.2511 24.8793C26.3472 24.9086 26.4433 24.9253 26.5436 24.9253C26.7148 24.9253 26.8861 24.8835 27.0407 24.7997C26.6188 25.0551 26.2887 25.3943 26.0464 25.7838C26.272 26.1816 26.4433 26.6171 26.5101 27.0484C26.6563 26.2779 27.1033 25.6623 27.7884 25.3232C27.7926 25.252 27.801 25.185 27.8135 25.1138C27.8469 24.8876 27.8762 24.6573 27.8971 24.427C27.6255 24.5024 27.3749 24.6071 27.1493 24.7327C27.3498 24.5903 27.5044 24.3684 27.5921 24.0878C27.6548 24.0669 27.7174 24.0417 27.7843 24.0208L27.9096 24.1255C27.9054 24.226 27.9054 24.3265 27.8971 24.427C27.989 24.3977 28.0934 24.3851 28.1937 24.3642L28.3148 24.4647C28.2939 24.695 28.2647 24.9295 28.2313 25.1556H28.2271Z" fill="white"/>
</mask>
<g mask="url(#mask1_2349_7269)">
<path d="M27.8975 24.4269C27.8766 24.6573 27.8474 24.8876 27.814 25.1137C27.8014 25.1849 27.7931 25.2519 27.7889 25.3231C27.1038 25.6623 26.6568 26.2779 26.5106 27.0484C26.4437 26.6171 26.2725 26.1816 26.0469 25.7837C26.2892 25.3943 26.6192 25.0551 27.0411 24.7996C27.0745 24.7787 27.1121 24.7536 27.1497 24.7326C27.3753 24.607 27.626 24.5023 27.8975 24.4269Z" fill="white"/>
</g>
<mask id="mask2_2349_7269" style="mask-type:luminance" maskUnits="userSpaceOnUse" x="31" y="20" width="11" height="12">
<path d="M31.335 20.5453V31.8687H41.6659V20.5453H31.335ZM33.666 28.7028C33.5281 28.7363 33.3861 28.7656 33.2441 28.7908C33.1814 28.8033 33.1146 28.8159 33.0477 28.8243C32.8973 28.8452 32.7511 28.8745 32.6049 28.9122C32.6049 28.9206 32.5966 28.9248 32.5966 28.9331C32.5172 29.1635 32.4128 29.377 32.2833 29.578C32.2498 29.6325 32.2081 29.6827 32.1705 29.733C32.1203 29.8 32.0744 29.867 32.0201 29.9298L31.9532 29.8754C31.9198 29.7832 31.8947 29.6911 31.8697 29.5948C31.7945 29.2933 31.7611 29.0001 31.7611 28.6944C31.7611 28.6023 31.7736 28.5018 31.7778 28.4097C31.7903 28.4055 31.807 28.4013 31.8237 28.3971C31.8822 28.1668 31.9115 27.9197 31.9115 27.6643C31.9115 27.6266 31.9115 27.5889 31.9073 27.547C31.9073 27.547 31.9073 27.5261 31.9073 27.5135C31.9574 27.2916 32.0117 27.0948 32.0744 26.9105C32.1412 26.7053 32.2248 26.4918 32.3334 26.2363L32.4963 26.1316C32.559 26.2656 32.6133 26.3996 32.655 26.542C32.7261 26.7556 32.7637 26.9859 32.7887 27.2162C32.8096 27.3628 32.8221 27.5093 32.8221 27.6601C32.8221 27.7062 32.8221 27.7522 32.8221 27.7983C33.0101 27.6475 33.2023 27.5093 33.407 27.3837C33.5323 27.3 33.6702 27.2288 33.7997 27.1576L33.8582 27.3125C33.7412 27.7983 33.6827 28.2506 33.6785 28.6903L33.666 28.7028Z" fill="white"/>
</mask>
<g mask="url(#mask2_2349_7269)">
<path d="M32.1705 28.7028C32.1705 28.1668 32.2665 27.614 32.4545 27.0529C32.6467 26.4792 32.9015 25.9222 33.2232 25.3862C33.5574 24.8376 33.9375 24.3225 34.3678 23.8452C34.7981 23.3552 35.2576 22.9323 35.7464 22.5721C36.2352 22.1994 36.7323 21.9147 37.2294 21.7095C37.7432 21.4959 38.2362 21.387 38.7124 21.387C39.0926 21.387 39.4142 21.4457 39.6774 21.5671C39.9531 21.6885 40.1745 21.856 40.3374 22.0696C40.5045 22.2832 40.6257 22.5428 40.6967 22.8401C40.7803 23.1291 40.822 23.4431 40.822 23.7907C40.822 24.2807 40.7218 24.7999 40.5171 25.3527C40.3249 25.9013 40.0617 26.4457 39.7317 26.9859C39.41 27.5219 39.0299 28.037 38.5871 28.5269C38.1443 29.0043 37.6806 29.4356 37.1918 29.8167C36.703 30.1894 36.2017 30.4867 35.6879 30.7128C35.1866 30.9264 34.6978 31.0353 34.2216 31.0353C33.5198 31.0353 32.9976 30.8217 32.6634 30.3904C32.3292 29.9465 32.1621 29.3854 32.1621 28.7028H32.1705ZM33.2441 28.774C33.2441 29.0378 33.2608 29.2891 33.2984 29.5277C33.3443 29.7664 33.4195 29.9758 33.5114 30.1559C33.6201 30.336 33.7496 30.4783 33.9041 30.5872C34.0712 30.6961 34.2801 30.7505 34.5307 30.7505C35.1156 30.7505 35.713 30.5453 36.3187 30.1391C36.937 29.7204 37.5009 29.176 38.0022 28.506C38.5161 27.8359 38.9338 27.078 39.2555 26.2279C39.5897 25.3778 39.7568 24.5235 39.7568 23.6651C39.7568 23.4013 39.7275 23.15 39.6691 22.9113C39.6231 22.6726 39.5312 22.4632 39.4017 22.2832C39.2805 22.0905 39.126 21.944 38.938 21.8351C38.7458 21.7262 38.5077 21.6718 38.2236 21.6718C37.6973 21.6718 37.1458 21.8854 36.561 22.3167C35.9762 22.748 35.4414 23.305 34.9527 23.9833C34.4639 24.6617 34.0587 25.4281 33.737 26.2782C33.4154 27.1157 33.2524 27.9448 33.2524 28.7698L33.2441 28.774Z" fill="white"/>
</g>
</svg>
