<svg width="116" height="42" viewBox="0 0 116 42" fill="none" xmlns="http://www.w3.org/2000/svg">
<rect width="116" height="42" rx="21" fill="#E2E5EC"/>
<path d="M30.916 14.8164V27.2578H29.1523V14.8164H30.916ZM20.498 23.7305C23.7109 22.2129 25.126 20.2441 25.4062 17.4824H21.168V16.1152H27.1836C27.1768 19.8887 25.8574 23.0264 21.4141 25.125L20.498 23.7305ZM43.9316 21.4883V22.8828H32.543V21.4883H37.3691V20.5859H33.9648V17.168H40.8008V16.4023H33.9375V15.0488H42.5508V18.4258H35.7012V19.2461H42.7832V20.5859H39.1055V21.4883H43.9316ZM33.8145 24.9609V23.5938H42.6191V27.2031H40.8555V24.9609H33.8145ZM54.4727 14.8164V19.6836H56.3047V21.1191H54.4727V27.2578H52.75V14.8164H54.4727ZM44.5879 18.0703V16.6758H47.4043V15.0078H49.1543V16.6758H51.9023V18.0703H44.5879ZM45.0938 21.7344C45.0869 19.998 46.4404 18.7607 48.2793 18.7676C50.0908 18.7607 51.4512 19.998 51.4512 21.7344C51.4512 23.4707 50.0908 24.6943 48.2793 24.7012C46.4404 24.6943 45.0869 23.4707 45.0938 21.7344ZM46.7617 21.7344C46.7617 22.6982 47.3975 23.2725 48.2793 23.2656C49.1475 23.2725 49.7832 22.6982 49.7832 21.7344C49.7832 20.7773 49.1475 20.1895 48.2793 20.1758C47.3975 20.1895 46.7617 20.7773 46.7617 21.7344ZM67.2422 14.8164V27.2852H65.5059V20.7227H63.4961V19.3008H65.5059V14.8164H67.2422ZM57.166 17.2637V15.8555H62.7988V20.5176H58.9297V22.9512C60.6455 22.9375 62.0947 22.876 63.7012 22.5957L63.8379 24.0176C61.9922 24.3252 60.3037 24.3936 58.2188 24.3867H57.1934V19.1367H61.1035V17.2637H57.166ZM81.8984 14.8164V19.5879H83.6621V21.0234H81.8984V27.2305H80.1484V14.8164H81.8984ZM71.9453 23.7441C74.8916 22.2676 76.4775 20.2852 76.8057 17.5098H72.6562V16.0879H78.5762C78.5625 19.8066 77.1133 23.0264 72.9297 25.084L71.9453 23.7441ZM94.6406 14.8164V27.2578H92.877V14.8164H94.6406ZM84.2227 23.7305C87.4355 22.2129 88.8506 20.2441 89.1309 17.4824H84.8926V16.1152H90.9082C90.9014 19.8887 89.582 23.0264 85.1387 25.125L84.2227 23.7305Z" fill="#363942"/>
</svg>
