<svg width="165" height="18" viewBox="0 0 165 18" fill="none" xmlns="http://www.w3.org/2000/svg">
<path d="M5.41992 1.27344C8.13477 1.27344 10.0879 3.73438 10.1074 7.60156C10.0879 11.5078 8.13477 13.9492 5.41992 13.9492C2.70508 13.9492 0.712891 11.5078 0.732422 7.60156C0.712891 3.73438 2.70508 1.27344 5.41992 1.27344ZM5.41992 3.51953C4.05273 3.51953 3.13477 4.96484 3.13477 7.60156C3.13477 10.2578 4.05273 11.6836 5.41992 11.6836C6.80664 11.6836 7.70508 10.2578 7.72461 7.60156C7.70508 4.96484 6.80664 3.51953 5.41992 3.51953ZM14.6582 0.0234375V6.72266H17.2754V8.79297H14.6582V17.7969H12.1582V0.0234375H14.6582ZM32.8027 0.0234375V10.7266H30.3027V0.0234375H32.8027ZM32.8027 11.5078V17.7969H30.3027V13.5H20.5762V11.5078H32.8027ZM28.4277 1.05859V3.05078H24.8535C24.873 5.13086 26.1816 7.31836 29.0918 8.1875L27.8223 10.1211C25.8301 9.50586 24.4238 8.22656 23.623 6.60547C22.8125 8.36328 21.3672 9.75977 19.2871 10.4531L17.998 8.51953C20.9277 7.57227 22.2949 5.26758 22.3145 3.05078H18.6621V1.05859H28.4277ZM49.7754 1.11719V3.01172H48.3301V6.58594C49.0332 6.54688 49.7363 6.48828 50.4004 6.41016L50.498 8.20703C47.0215 8.75391 43.0176 8.79297 39.9902 8.79297L39.7168 6.83984L41.6504 6.82031V3.01172H40.1855V1.11719H49.7754ZM53.916 0.0234375V3.51953H56.3184V5.57031H53.916V9.14453H51.416V0.0234375H53.916ZM53.916 9.84766V14.5938H44.5996V15.707H54.4238V17.6797H42.1582V12.8359H51.4355V11.7812H42.1191V9.84766H53.916ZM44.0527 6.80078L45.9277 6.72266V3.01172H44.0527V6.80078ZM73.3691 13.7734V15.8242H57.0996V13.7734H63.9551V11.0977H58.9746V5.12109H69.0332V3.16797H58.9551V1.17578H71.4941V7.07422H61.4746V9.06641H71.9043V11.0977H66.4355V13.7734H73.3691ZM89.5605 0.0429688V17.7969H87.0215V13.8711H83.4082V11.9961H87.0215V0.0429688H89.5605ZM74.3066 9.04688C77.627 9.04688 82.0605 9.02734 85.8887 8.51953L86.0254 10.3359C84.4629 10.6191 82.8516 10.7949 81.2793 10.9023V17.2695H78.7598V11.0195C77.2852 11.0684 75.8887 11.0781 74.6191 11.0781L74.3066 9.04688ZM80.127 0.746094C82.7441 0.746094 84.6777 2.26953 84.6973 4.39844C84.6777 6.58594 82.7441 8.03125 80.127 8.03125C77.4707 8.03125 75.5566 6.58594 75.5566 4.39844C75.5566 2.26953 77.4707 0.746094 80.127 0.746094ZM80.127 2.64062C78.7988 2.64062 77.9004 3.32422 77.9004 4.39844C77.9004 5.51172 78.7988 6.13672 80.127 6.13672C81.416 6.13672 82.3145 5.51172 82.334 4.39844C82.3145 3.32422 81.416 2.64062 80.127 2.64062ZM105.693 0.0234375V6.83984H108.213V8.89062H105.693V17.7578H103.193V0.0234375H105.693ZM100.947 1.83984C100.928 7.15234 98.8574 11.7617 92.8809 14.6914L91.4746 12.7773C95.6836 10.668 97.9395 7.83594 98.4082 3.87109H92.4902V1.83984H100.947ZM117.842 10.4141V12.1914H119.756V10.4141H122.061V15.8047C124.033 14.9258 124.873 13.2656 124.873 11.6445V10.2773H127.373V11.6445C127.354 13.4609 128.232 15.1797 130.459 15.9023L129.17 17.7578C127.637 17.2305 126.65 16.2148 126.084 14.9453C125.488 16.1758 124.512 17.2012 123.076 17.7578L122.061 16.2148V17.6016H115.537V10.4141H117.842ZM117.842 15.707H119.756V14.0273H117.842V15.707ZM118.525 0.6875C120.791 0.6875 122.598 1.94727 123.096 3.83203H126.064V0.0234375H128.545V9.4375H126.064V5.88281H123.096C122.617 7.80664 120.801 9.08594 118.525 9.08594C115.791 9.08594 113.779 7.34766 113.799 4.86719C113.779 2.42578 115.791 0.6875 118.525 0.6875ZM118.525 2.73828C117.139 2.73828 116.143 3.55859 116.162 4.86719C116.143 6.21484 117.139 7.03516 118.525 7.05469C119.873 7.03516 120.85 6.21484 120.85 4.86719C120.85 3.55859 119.873 2.73828 118.525 2.73828ZM135.752 1.27344C138.154 1.27344 139.941 3.25586 140.303 6.44922H143.389V0.0234375H145.85V17.8359H143.389V8.44141H140.322C140.059 11.8594 138.232 13.9492 135.752 13.9492C133.057 13.9492 131.123 11.5078 131.143 7.60156C131.123 3.73438 133.057 1.27344 135.752 1.27344ZM135.752 3.51953C134.424 3.51953 133.506 4.96484 133.525 7.60156C133.506 10.2578 134.424 11.6836 135.752 11.6836C137.1 11.6836 137.979 10.2578 137.979 7.60156C137.979 4.96484 137.1 3.51953 135.752 3.51953ZM164.404 13.6758V15.7266H148.135V13.6758H151.768V9.32031C150.391 8.5 149.561 7.24023 149.561 5.66797C149.561 2.79688 152.373 0.882812 156.24 0.882812C160.088 0.882812 162.92 2.79688 162.939 5.66797C162.93 7.20117 162.119 8.45117 160.791 9.28125V13.6758H164.404ZM156.24 2.85547C153.701 2.85547 152.021 3.87109 152.021 5.66797C152.021 7.40625 153.701 8.48047 156.24 8.48047C158.76 8.48047 160.459 7.40625 160.479 5.66797C160.459 3.87109 158.76 2.85547 156.24 2.85547ZM154.229 13.6758H158.271V10.2188C157.637 10.3457 156.953 10.4141 156.24 10.4141C155.527 10.4141 154.854 10.3555 154.229 10.2188V13.6758Z" fill="#E2E5EC"/>
</svg>
