<svg width="18" height="18" viewBox="0 0 18 18" fill="none" xmlns="http://www.w3.org/2000/svg">
<path fill-rule="evenodd" clip-rule="evenodd" d="M13.1633 4.64645C12.968 4.45118 12.6515 4.45118 12.4562 4.64645L8.75842 8.34422L5.06065 4.64645C4.86538 4.45118 4.5488 4.45118 4.35354 4.64645C4.15828 4.84171 4.15828 5.15829 4.35354 5.35355L8.05132 9.05133L4.35355 12.7491C4.15829 12.9444 4.15829 13.2609 4.35355 13.4562C4.54882 13.6515 4.8654 13.6515 5.06066 13.4562L8.75842 9.75844L12.4562 13.4562C12.6514 13.6515 12.968 13.6515 13.1633 13.4562C13.3586 13.2609 13.3586 12.9444 13.1633 12.7491L9.46553 9.05133L13.1633 5.35355C13.3586 5.15829 13.3586 4.84171 13.1633 4.64645Z" fill="#9BABFB"/>
</svg>
